<?xml version="1.0" encoding="UTF-8"?>
<svg xmlns="http://www.w3.org/2000/svg" xmlns:xlink="http://www.w3.org/1999/xlink" width="16" height="16" viewBox="0 0 16 16" version="1.1">
<g id="surface1">
<rect x="0" y="0" width="16" height="16" style="fill:rgb(91.37255%,32.941177%,12.54902%);fill-opacity:1;stroke:none;"/>
<path style=" stroke:none;fill-rule:nonzero;fill:rgb(100%,100%,100%);fill-opacity:1;" d="M 5.265625 7.910156 C 5.265625 8.835938 4.515625 9.585938 3.589844 9.585938 C 2.664062 9.585938 1.914062 8.835938 1.914062 7.910156 C 1.914062 6.984375 2.664062 6.234375 3.589844 6.234375 C 4.515625 6.234375 5.265625 6.984375 5.265625 7.910156 Z M 5.265625 7.910156 "/>
<path style=" stroke:none;fill-rule:nonzero;fill:rgb(100%,100%,100%);fill-opacity:1;" d="M 12.226562 4.238281 C 12.226562 5.164062 11.476562 5.914062 10.550781 5.914062 C 9.625 5.914062 8.875 5.164062 8.875 4.238281 C 8.875 3.316406 9.625 2.566406 10.550781 2.566406 C 11.476562 2.566406 12.226562 3.316406 12.226562 4.238281 Z M 12.226562 4.238281 "/>
<path style=" stroke:none;fill-rule:nonzero;fill:rgb(100%,100%,100%);fill-opacity:1;" d="M 7.363281 12.210938 C 6.164062 11.960938 5.144531 11.175781 4.589844 10.085938 C 4.144531 10.285156 3.648438 10.347656 3.164062 10.261719 C 3.84375 11.941406 5.316406 13.175781 7.089844 13.550781 C 7.480469 13.632812 7.875 13.675781 8.273438 13.675781 C 7.960938 13.273438 7.785156 12.785156 7.773438 12.273438 C 7.636719 12.273438 7.496094 12.25 7.363281 12.210938 Z M 7.363281 12.210938 "/>
<path style=" stroke:none;fill-rule:nonzero;fill:rgb(100%,100%,100%);fill-opacity:1;" d="M 11.851562 12.226562 C 11.851562 13.148438 11.101562 13.898438 10.175781 13.898438 C 9.25 13.898438 8.5 13.148438 8.5 12.226562 C 8.5 11.300781 9.25 10.550781 10.175781 10.550781 C 11.101562 10.550781 11.851562 11.300781 11.851562 12.226562 Z M 11.851562 12.226562 "/>
<path style=" stroke:none;fill-rule:nonzero;fill:rgb(100%,100%,100%);fill-opacity:1;" d="M 12.5 11.613281 C 13.960938 9.757812 14.070312 7.175781 12.773438 5.199219 C 12.582031 5.652344 12.253906 6.039062 11.835938 6.300781 C 12.285156 7.152344 12.425781 8.132812 12.226562 9.074219 C 12.128906 9.535156 11.949219 9.976562 11.699219 10.375 C 12.097656 10.6875 12.378906 11.125 12.5 11.613281 Z M 12.5 11.613281 "/>
<path style=" stroke:none;fill-rule:nonzero;fill:rgb(100%,100%,100%);fill-opacity:1;" d="M 3.449219 5.5 L 3.574219 5.5 C 3.742188 5.5 3.910156 5.515625 4.074219 5.550781 C 4.34375 5.609375 4.601562 5.71875 4.835938 5.863281 C 5.582031 4.78125 6.808594 4.125 8.125 4.105469 C 8.132812 3.980469 8.152344 3.855469 8.175781 3.730469 C 8.25 3.375 8.40625 3.039062 8.636719 2.753906 C 6.523438 2.59375 4.503906 3.664062 3.449219 5.5 Z M 3.449219 5.5 "/>
</g>
</svg>
