<?xml version="1.0" encoding="UTF-8"?>
<svg xmlns="http://www.w3.org/2000/svg" xmlns:xlink="http://www.w3.org/1999/xlink" width="22" height="22" viewBox="0 0 22 22" version="1.1">
<g id="surface1">
<rect x="0" y="0" width="22" height="22" style="fill:rgb(91.37255%,32.941177%,12.54902%);fill-opacity:1;stroke:none;"/>
<path style=" stroke:none;fill-rule:nonzero;fill:rgb(100%,100%,100%);fill-opacity:1;" d="M 7.238281 10.875 C 7.238281 12.148438 6.207031 13.179688 4.9375 13.179688 C 3.664062 13.179688 2.632812 12.148438 2.632812 10.875 C 2.632812 9.605469 3.664062 8.574219 4.9375 8.574219 C 6.207031 8.574219 7.238281 9.605469 7.238281 10.875 Z M 7.238281 10.875 "/>
<path style=" stroke:none;fill-rule:nonzero;fill:rgb(100%,100%,100%);fill-opacity:1;" d="M 16.808594 5.828125 C 16.808594 7.101562 15.777344 8.132812 14.507812 8.132812 C 13.234375 8.132812 12.203125 7.101562 12.203125 5.828125 C 12.203125 4.558594 13.234375 3.527344 14.507812 3.527344 C 15.777344 3.527344 16.808594 4.558594 16.808594 5.828125 Z M 16.808594 5.828125 "/>
<path style=" stroke:none;fill-rule:nonzero;fill:rgb(100%,100%,100%);fill-opacity:1;" d="M 10.125 16.789062 C 8.476562 16.445312 7.074219 15.367188 6.3125 13.867188 C 5.699219 14.144531 5.015625 14.226562 4.351562 14.109375 C 5.28125 16.421875 7.308594 18.117188 9.75 18.632812 C 10.285156 18.746094 10.832031 18.804688 11.378906 18.804688 C 10.945312 18.253906 10.707031 17.578125 10.691406 16.878906 C 10.5 16.875 10.308594 16.84375 10.125 16.789062 Z M 10.125 16.789062 "/>
<path style=" stroke:none;fill-rule:nonzero;fill:rgb(100%,100%,100%);fill-opacity:1;" d="M 16.292969 16.808594 C 16.292969 18.082031 15.261719 19.113281 13.992188 19.113281 C 12.71875 19.113281 11.6875 18.082031 11.6875 16.808594 C 11.6875 15.539062 12.71875 14.507812 13.992188 14.507812 C 15.261719 14.507812 16.292969 15.539062 16.292969 16.808594 Z M 16.292969 16.808594 "/>
<path style=" stroke:none;fill-rule:nonzero;fill:rgb(100%,100%,100%);fill-opacity:1;" d="M 17.1875 15.96875 C 19.195312 13.417969 19.347656 9.867188 17.566406 7.148438 C 17.296875 7.773438 16.847656 8.300781 16.273438 8.664062 C 16.894531 9.832031 17.082031 11.183594 16.808594 12.476562 C 16.675781 13.113281 16.429688 13.714844 16.085938 14.265625 C 16.632812 14.695312 17.019531 15.296875 17.1875 15.96875 Z M 17.1875 15.96875 "/>
<path style=" stroke:none;fill-rule:nonzero;fill:rgb(100%,100%,100%);fill-opacity:1;" d="M 4.742188 7.5625 L 4.914062 7.5625 C 5.148438 7.558594 5.378906 7.582031 5.601562 7.632812 C 5.972656 7.714844 6.328125 7.863281 6.648438 8.0625 C 7.675781 6.570312 9.359375 5.667969 11.171875 5.644531 C 11.183594 5.472656 11.207031 5.300781 11.242188 5.128906 C 11.34375 4.636719 11.558594 4.179688 11.875 3.789062 C 8.96875 3.566406 6.195312 5.035156 4.742188 7.5625 Z M 4.742188 7.5625 "/>
</g>
</svg>
