<?xml version="1.0" encoding="UTF-8"?>
<svg xmlns="http://www.w3.org/2000/svg" xmlns:xlink="http://www.w3.org/1999/xlink" width="64" height="64" viewBox="0 0 64 64" version="1.1">
<g id="surface1">
<path style=" stroke:none;fill-rule:nonzero;fill:rgb(91.37255%,32.941177%,12.54902%);fill-opacity:1;" d="M 9.5 0 L 54.5 0 L 54.5 64 L 9.5 64 Z M 9.5 0 "/>
<path style=" stroke:none;fill-rule:nonzero;fill:rgb(100%,100%,100%);fill-opacity:1;" d="M 24 40.449219 C 24 43.046875 21.894531 45.148438 19.300781 45.148438 C 16.703125 45.148438 14.601562 43.046875 14.601562 40.449219 C 14.601562 37.855469 16.703125 35.75 19.300781 35.75 C 21.894531 35.75 24 37.855469 24 40.449219 Z M 24 40.449219 "/>
<path style=" stroke:none;fill-rule:nonzero;fill:rgb(100%,100%,100%);fill-opacity:1;" d="M 43.699219 30.101562 C 43.699219 32.695312 41.597656 34.800781 39 34.800781 C 36.402344 34.800781 34.300781 32.695312 34.300781 30.101562 C 34.300781 27.503906 36.402344 25.398438 39 25.398438 C 41.597656 25.398438 43.699219 27.503906 43.699219 30.101562 Z M 43.699219 30.101562 "/>
<path style=" stroke:none;fill-rule:nonzero;fill:rgb(100%,100%,100%);fill-opacity:1;" d="M 29.949219 52.601562 C 26.550781 51.898438 23.699219 49.699219 22.101562 46.601562 C 20.851562 47.199219 19.398438 47.351562 18.050781 47.101562 C 19.949219 51.851562 24.101562 55.300781 29.101562 56.398438 C 30.199219 56.648438 31.351562 56.75 32.449219 56.75 C 31.601562 55.601562 31.101562 54.25 31.050781 52.800781 C 30.75 52.75 30.351562 52.648438 29.949219 52.601562 Z M 29.949219 52.601562 "/>
<path style=" stroke:none;fill-rule:nonzero;fill:rgb(100%,100%,100%);fill-opacity:1;" d="M 42.601562 52.601562 C 42.601562 55.195312 40.496094 57.300781 37.898438 57.300781 C 35.304688 57.300781 33.199219 55.195312 33.199219 52.601562 C 33.199219 50.003906 35.304688 47.898438 37.898438 47.898438 C 40.496094 47.898438 42.601562 50.003906 42.601562 52.601562 Z M 42.601562 52.601562 "/>
<path style=" stroke:none;fill-rule:nonzero;fill:rgb(100%,100%,100%);fill-opacity:1;" d="M 44.5 50.898438 C 48.648438 45.648438 48.949219 38.351562 45.300781 32.75 C 44.75 34.050781 43.851562 35.101562 42.648438 35.851562 C 44.550781 39.449219 44.398438 43.851562 42.25 47.351562 C 43.351562 48.25 44.148438 49.5 44.5 50.898438 Z M 44.5 50.898438 "/>
<path style=" stroke:none;fill-rule:nonzero;fill:rgb(100%,100%,100%);fill-opacity:1;" d="M 18.949219 33.648438 L 19.300781 33.648438 C 19.800781 33.648438 20.25 33.699219 20.75 33.800781 C 21.5 33.949219 22.25 34.25 22.898438 34.648438 C 25 31.601562 28.449219 29.75 32.148438 29.699219 C 32.148438 29.351562 32.199219 29 32.300781 28.648438 C 32.5 27.648438 32.949219 26.699219 33.601562 25.898438 C 27.648438 25.449219 21.949219 28.449219 18.949219 33.648438 Z M 18.949219 33.648438 "/>
</g>
</svg>
