<?xml version="1.0" encoding="UTF-8"?>
<svg xmlns="http://www.w3.org/2000/svg" xmlns:xlink="http://www.w3.org/1999/xlink" width="48" height="48" viewBox="0 0 48 48" version="1.1">
<g id="surface1">
<path style=" stroke:none;fill-rule:nonzero;fill:rgb(91.37255%,32.941177%,12.54902%);fill-opacity:1;" d="M 7.125 0 L 40.875 0 L 40.875 48 L 7.125 48 Z M 7.125 0 "/>
<path style=" stroke:none;fill-rule:nonzero;fill:rgb(100%,100%,100%);fill-opacity:1;" d="M 18 30.335938 C 18 32.285156 16.421875 33.863281 14.476562 33.863281 C 12.527344 33.863281 10.949219 32.285156 10.949219 30.335938 C 10.949219 28.390625 12.527344 26.8125 14.476562 26.8125 C 16.421875 26.8125 18 28.390625 18 30.335938 Z M 18 30.335938 "/>
<path style=" stroke:none;fill-rule:nonzero;fill:rgb(100%,100%,100%);fill-opacity:1;" d="M 32.773438 22.574219 C 32.773438 24.523438 31.195312 26.101562 29.25 26.101562 C 27.304688 26.101562 25.726562 24.523438 25.726562 22.574219 C 25.726562 20.628906 27.304688 19.050781 29.25 19.050781 C 31.195312 19.050781 32.773438 20.628906 32.773438 22.574219 Z M 32.773438 22.574219 "/>
<path style=" stroke:none;fill-rule:nonzero;fill:rgb(100%,100%,100%);fill-opacity:1;" d="M 22.460938 39.449219 C 19.914062 38.925781 17.773438 37.273438 16.574219 34.949219 C 15.636719 35.398438 14.550781 35.511719 13.539062 35.324219 C 14.960938 38.886719 18.074219 41.476562 21.824219 42.300781 C 22.648438 42.488281 23.511719 42.5625 24.335938 42.5625 C 23.699219 41.699219 23.324219 40.6875 23.289062 39.601562 C 23.0625 39.5625 22.761719 39.488281 22.460938 39.449219 Z M 22.460938 39.449219 "/>
<path style=" stroke:none;fill-rule:nonzero;fill:rgb(100%,100%,100%);fill-opacity:1;" d="M 31.949219 39.449219 C 31.949219 41.398438 30.371094 42.976562 28.425781 42.976562 C 26.476562 42.976562 24.898438 41.398438 24.898438 39.449219 C 24.898438 37.503906 26.476562 35.925781 28.425781 35.925781 C 30.371094 35.925781 31.949219 37.503906 31.949219 39.449219 Z M 31.949219 39.449219 "/>
<path style=" stroke:none;fill-rule:nonzero;fill:rgb(100%,100%,100%);fill-opacity:1;" d="M 33.375 38.175781 C 36.488281 34.238281 36.710938 28.761719 33.976562 24.5625 C 33.5625 25.539062 32.886719 26.324219 31.988281 26.886719 C 33.414062 29.585938 33.300781 32.886719 31.6875 35.511719 C 32.511719 36.1875 33.113281 37.125 33.375 38.175781 Z M 33.375 38.175781 "/>
<path style=" stroke:none;fill-rule:nonzero;fill:rgb(100%,100%,100%);fill-opacity:1;" d="M 14.210938 25.238281 L 14.476562 25.238281 C 14.851562 25.238281 15.1875 25.273438 15.5625 25.351562 C 16.125 25.460938 16.6875 25.6875 17.175781 25.988281 C 18.75 23.699219 21.335938 22.3125 24.113281 22.273438 C 24.113281 22.011719 24.148438 21.75 24.226562 21.488281 C 24.375 20.738281 24.710938 20.023438 25.199219 19.425781 C 20.738281 19.085938 16.460938 21.335938 14.210938 25.238281 Z M 14.210938 25.238281 "/>
</g>
</svg>
