<?xml version="1.0" encoding="UTF-8"?>
<svg xmlns="http://www.w3.org/2000/svg" xmlns:xlink="http://www.w3.org/1999/xlink" width="24" height="24" viewBox="0 0 24 24" version="1.1">
<g id="surface1">
<rect x="0" y="0" width="24" height="24" style="fill:rgb(91.37255%,32.941177%,12.54902%);fill-opacity:1;stroke:none;"/>
<path style=" stroke:none;fill-rule:nonzero;fill:rgb(100%,100%,100%);fill-opacity:1;" d="M 7.898438 11.863281 C 7.898438 13.253906 6.773438 14.378906 5.386719 14.378906 C 3.996094 14.378906 2.871094 13.253906 2.871094 11.863281 C 2.871094 10.476562 3.996094 9.351562 5.386719 9.351562 C 6.773438 9.351562 7.898438 10.476562 7.898438 11.863281 Z M 7.898438 11.863281 "/>
<path style=" stroke:none;fill-rule:nonzero;fill:rgb(100%,100%,100%);fill-opacity:1;" d="M 18.335938 6.359375 C 18.335938 7.746094 17.210938 8.871094 15.824219 8.871094 C 14.4375 8.871094 13.3125 7.746094 13.3125 6.359375 C 13.3125 4.972656 14.4375 3.847656 15.824219 3.847656 C 17.210938 3.847656 18.335938 4.972656 18.335938 6.359375 Z M 18.335938 6.359375 "/>
<path style=" stroke:none;fill-rule:nonzero;fill:rgb(100%,100%,100%);fill-opacity:1;" d="M 11.046875 18.316406 C 9.25 17.9375 7.71875 16.765625 6.886719 15.128906 C 6.214844 15.429688 5.46875 15.519531 4.746094 15.390625 C 5.761719 17.914062 7.972656 19.765625 10.636719 20.324219 C 11.21875 20.453125 11.816406 20.515625 12.414062 20.511719 C 11.941406 19.910156 11.679688 19.175781 11.664062 18.414062 C 11.453125 18.410156 11.246094 18.375 11.046875 18.316406 Z M 11.046875 18.316406 "/>
<path style=" stroke:none;fill-rule:nonzero;fill:rgb(100%,100%,100%);fill-opacity:1;" d="M 17.773438 18.335938 C 17.773438 19.726562 16.648438 20.851562 15.261719 20.851562 C 13.875 20.851562 12.75 19.726562 12.75 18.335938 C 12.75 16.949219 13.875 15.824219 15.261719 15.824219 C 16.648438 15.824219 17.773438 16.949219 17.773438 18.335938 Z M 17.773438 18.335938 "/>
<path style=" stroke:none;fill-rule:nonzero;fill:rgb(100%,100%,100%);fill-opacity:1;" d="M 18.75 17.421875 C 20.941406 14.636719 21.105469 10.761719 19.164062 7.800781 C 18.871094 8.480469 18.378906 9.054688 17.753906 9.449219 C 18.429688 10.726562 18.636719 12.199219 18.335938 13.613281 C 18.191406 14.304688 17.925781 14.964844 17.550781 15.5625 C 18.144531 16.03125 18.566406 16.6875 18.75 17.421875 Z M 18.75 17.421875 "/>
<path style=" stroke:none;fill-rule:nonzero;fill:rgb(100%,100%,100%);fill-opacity:1;" d="M 5.175781 8.25 L 5.363281 8.25 C 5.613281 8.246094 5.867188 8.273438 6.113281 8.324219 C 6.515625 8.417969 6.902344 8.574219 7.253906 8.796875 C 8.371094 7.167969 10.210938 6.183594 12.1875 6.15625 C 12.203125 5.96875 12.226562 5.78125 12.261719 5.59375 C 12.375 5.058594 12.609375 4.558594 12.953125 4.132812 C 9.785156 3.890625 6.757812 5.492188 5.175781 8.25 Z M 5.175781 8.25 "/>
</g>
</svg>
